<?xml version="1.0" encoding="UTF-8" standalone="no"?>
<!DOCTYPE svg PUBLIC "-//W3C//DTD SVG 1.1//EN" "http://www.w3.org/Graphics/SVG/1.1/DTD/svg11.dtd">
<svg width="100%" height="100%" viewBox="0 0 512 512" version="1.1" xmlns="http://www.w3.org/2000/svg" xmlns:xlink="http://www.w3.org/1999/xlink" xml:space="preserve" xmlns:serif="http://www.serif.com/" style="fill-rule:evenodd;clip-rule:evenodd;stroke-linejoin:round;stroke-miterlimit:2;">
    <g transform="matrix(703.27,0,0,703.27,-25.9262,512)">
        <path d="M0.048,0L0.048,-0.121L0.187,-0.121C0.102,-0.21 0.059,-0.306 0.059,-0.409C0.059,-0.499 0.09,-0.574 0.15,-0.636C0.211,-0.697 0.295,-0.728 0.401,-0.728C0.506,-0.728 0.589,-0.697 0.65,-0.636C0.712,-0.575 0.742,-0.499 0.742,-0.409C0.742,-0.306 0.7,-0.21 0.615,-0.121L0.754,-0.121L0.754,0L0.426,0L0.426,-0.115C0.481,-0.136 0.523,-0.169 0.551,-0.215C0.579,-0.261 0.593,-0.314 0.593,-0.374C0.593,-0.435 0.577,-0.489 0.545,-0.535C0.512,-0.581 0.464,-0.604 0.401,-0.604C0.338,-0.604 0.29,-0.582 0.257,-0.536C0.225,-0.49 0.208,-0.436 0.208,-0.374C0.208,-0.313 0.223,-0.26 0.251,-0.215C0.279,-0.169 0.32,-0.136 0.375,-0.115L0.375,0L0.048,0Z" style="fill:rgb(0 0 0 / 87%);fill-rule:nonzero;"/>
    </g>
</svg>
